<svg fill="none" height="198" viewBox="0 0 1627 198" width="1627" xmlns="http://www.w3.org/2000/svg"><g fill="#fff7e9"><path d="m47.75 3.75c-32.5 0-47.75 20.75-47.75 48.75v107.75c0 31.5 15.75 37.25 33 37.25 19.25 0 30-7.5 30-25 0-12.25-4.25-21.75-14.5-33.5l-30.75-34.5c-6.5-7.25-7.75-18.25-1-25.75 7.75-8.5 19.5-8 25.75 0l28.75 37.75c16.75 22 31.5 30.75 53 30.75 37.75 0 53.5-28.25 53.5-65.75 0-50.75-24.25-77.75-79-77.75zm-11 51.75c0-5.25 4-7.75 10.5-10.5l46.25-19c13.5-5.5 18-4.25 27 8.5l38 54.5c13 18.5-1 34.5-26.25 21.75l-86.75-44c-6.25-3.25-8.75-7-8.75-11.25z"/><path d="m195.166 59.25c0 4.5 2 8 8.25 8h10.75c8 0 12.5 2 12.5 7.75 0 1.25-.25 2.75-.75 4.5l-20.25 74c-6.75 25 6.5 44 35 44 19.25 0 39.25-8.5 37.5-25.25-1.5-14.5-13.75-16-24.25-11.5l-30 13c-4.75 2-9-2.25-9-7.25 0-2.5 1.25-4.5 5.25-9l47.75-54.5c16.5-19 8-40.25-17.25-37.25l-17 2c-2.25.25-6.5.25-6.5-4 0-2.5 1.5-4.75 4.75-5.75l27.5-9.5c12-4.25 20.5-10.75 20.5-24.75 0-14.99999-12.25-23.75-25-23.75-7.25 0-14.5 2.75-19.75 8.75001l-28.25 32.49999c-6.25 7.25-11.75 14-11.75 18z"/><path d="m308.344 145.25c-.75 5-1 9.5-1 13.5 0 25.75 7.25 35 34.5 35h49.75c26.25 0 37-14.25 37-28.5s-11-28.5-27.5-28.5c-7.5 0-16.25 3-25.75 10.25l-23 17.75c-12.75 9.75-20 15.25-25.25 15.25-4.25 0-9.75-4.25-9.75-10.75 0-5 3-11.75 7.25-19.5l52.75-98c4.75-9 6.75-16.75 6.75-23.25 0-19-16-28.5-30.25-28.5-17 0-27 12.75-30.75 39.5z"/><path d="m535.736 197.5c58.25 0 88.75-33.75 88.75-99.25s-30.5-98.25-88.75-98.25c-58 0-88.5 32.75-88.5 98.25s30.5 99.25 88.5 99.25zm4.25-21.75c-9.5 11.25-25.5 5.25-29.5-7.75l-33.75-107.75c-7.25-23.5 8.5-36.5 28.5-28.5l94.75 38c12 4.75 14.5 16 6 26.25z"/><path d="m895.262 94.5c2.75 3.75 4.25 7.25 4.25 11 0 4.5-2 9.25-5.25 15l-9.75 18c-7 13-12.75 15.25-19.75 15.25-10.25 0-15.75-8.25-18.75-21l-18-79.25c-3.75-16-10-21-19.5-21-11.25 0-21 8.5-29 20.5l-57 85.25c-8 12-12.25 16.5-18.75 16.5-9 0-13.5-5.25-13.5-12.75 0-6.75 3.5-12.25 9.5-21.5l36.25-57.5c9.25-14.5 15.5-27.25 15.5-38 0-15-11.5-25-39.75-25-40.25 0-64.75 47.5-64.75 82 0 6.5 5.75 10.5 10.25 10.5 8 0 12.75-4.5 14-15.25l6-45.5c1.25-9.5 7-13.25 12.75-13.25 6.25 0 9.75 5.5 8 15.25l-22.25 111.5c-1 5.25-1.25 10-1.25 14.5 0 24.75 15 37.75 35.5 37.75 10.25 0 22.5-5.5 30.75-17l69.75-97.75c2.5-3.5 5.75-6.75 9-6.75 4 0 5.25 2.75 5.25 5.5 0 1.75-.25 4.25-1.25 6.25l-18.75 39.75c-20.5 43.25-12.75 70 24.5 70 53.75 0 84.25-72.5 84.25-121.25 0-57.5-11.75-76.25-31.25-76.25-19.25 0-31.75 11.25-31.75 25.25 0 6.25 3.75 12.75 9 20z"/><path d="m937.25 145.25c-.75 5-1 9.5-1 13.5 0 25.75 7.25 35 34.5 35h49.75c26.25 0 37-14.25 37-28.5s-11-28.5-27.5-28.5c-7.5 0-16.25 3-25.75 10.25l-23 17.75c-12.75 9.75-20 15.25-25.25 15.25-4.25 0-9.75-4.25-9.75-10.75 0-5 3-11.75 7.25-19.5l52.75-98c4.75-9 6.75-16.75 6.75-23.25 0-19-16-28.5-30.25-28.5-17 0-27 12.75-30.75 39.5z"/><path d="m1116.21 137c-22 .5-40 8.75-40 28.75 0 23.5 16.25 31.75 30.75 31.75 20.5 0 39-18.5 50.5-28.25l24.5-21c8.75-7.5 16-5.75 16 8v13c0 15.25 9.75 28.25 30.25 28.25 25.75 0 34.25-21.5 29-49.5l-22.75-120.25c-3.25-17-13.5-27.75-28.5-27.75-16.25 0-25.25 6.50001-47 23.75l-50.25 40c-11.5 9.25-19 19-19 29.75 0 15.5 12 27.75 26.75 27.75 9.25 0 23.25-3.25 31.25-19.75l30.25-62c3.75-7.75 12.75-26.75 23.25-28.75s17.25 6.75 15.5 20.5l-10.75 88.5c-1.5 12.75-11 15.5-25.25 15.75z"/><path d="m1384.84 143.25c3.25 7.75 7.5 16.5 7.5 22.75 0 10.5-5.5 16-14.25 16-13.5 0-19-18.5-22.75-29.75l-43.25-129.75c-5.25-15.75-15.75-22.5-29-22.5-12.25 0-24.5 9.25-24.5 27.5 0 10.5 8 20.75 14.25 30.5l72.5 115.75c12.75 20.5 21 23.75 33.75 23.75 12 0 24.25-6.5 28.75-23.75l32.25-124c2-7.25 4-15 4-20.75 0-17.5-14-29-29-29-13.5 0-23.75 9-23.5 23.25.25 10.75 15.25 28 18.75 32.25 5.75 7 8.5 13.5 4.75 17.25-4.75 4.75-8.25 1-14.75-4l-17.25-13.75c-9-7.25-15.25-12.75-22.25-12.75-8.25 0-13.5 6-13.5 12.75 0 6.5 5 12.75 10.5 25.5z"/><path d="m1484.13 137c-22 .5-40 8.75-40 28.75 0 23.5 16.25 31.75 30.75 31.75 20.5 0 39-18.5 50.5-28.25l24.5-21c8.75-7.5 16-5.75 16 8v13c0 15.25 9.75 28.25 30.25 28.25 25.75 0 34.25-21.5 29-49.5l-22.75-120.25c-3.25-17-13.5-27.75-28.5-27.75-16.25 0-25.25 6.50001-47 23.75l-50.25 40c-11.5 9.25-19 19-19 29.75 0 15.5 12 27.75 26.75 27.75 9.25 0 23.25-3.25 31.25-19.75l30.25-62c3.75-7.75 12.75-26.75 23.25-28.75s17.25 6.75 15.5 20.5l-10.75 88.5c-1.5 12.75-11 15.5-25.25 15.75z"/></g></svg>